<?xml version="1.0" standalone="no"?>
<!DOCTYPE svg PUBLIC "-//W3C//DTD SVG 20010904//EN"
 "http://www.w3.org/TR/2001/REC-SVG-20010904/DTD/svg10.dtd">
<svg version="1.0" xmlns="http://www.w3.org/2000/svg"
 width="400.000000pt" height="400.000000pt" viewBox="0 0 400.000000 400.000000"
 preserveAspectRatio="xMidYMid meet">
<metadata>
Created by potrace 1.14, written by Peter Selinger 2001-2017
</metadata>
<g transform="translate(0.000000,400.000000) scale(0.100000,-0.100000)"
fill="#000000" stroke="none">
<path d="M1849 3996 c-2 -2 -33 -6 -69 -9 -103 -9 -314 -55 -424 -94 -205 -72
-463 -213 -606 -332 -133 -111 -236 -214 -307 -307 -13 -16 -37 -47 -54 -69
-43 -56 -130 -198 -173 -282 -91 -183 -155 -377 -191 -588 -26 -154 -27 -468
-2 -622 89 -539 378 -1007 815 -1320 48 -34 98 -68 112 -75 14 -7 27 -16 30
-20 20 -26 380 -179 478 -204 9 -2 44 -10 77 -19 33 -8 80 -18 105 -21 25 -3
47 -8 50 -9 30 -18 413 -27 536 -13 92 10 259 46 354 74 99 30 294 109 330
135 14 9 29 17 33 17 17 1 226 136 297 193 274 218 495 517 623 845 35 88 80
237 91 299 3 17 8 41 11 55 43 217 41 581 -6 770 -4 19 -11 50 -14 69 -23 135
-158 449 -260 607 -105 162 -180 252 -331 395 -94 88 -298 239 -325 239 -5 0
-9 4 -9 8 0 21 -367 180 -478 208 -9 2 -44 10 -77 19 -60 15 -73 18 -153 30
-23 4 -54 9 -70 11 -35 6 -388 15 -393 10z"/>
</g>
</svg>
