<?xml version="1.0" standalone="no"?>
<!DOCTYPE svg PUBLIC "-//W3C//DTD SVG 20010904//EN"
 "http://www.w3.org/TR/2001/REC-SVG-20010904/DTD/svg10.dtd">
<svg version="1.0" xmlns="http://www.w3.org/2000/svg"
 width="399.000000pt" height="399.000000pt" viewBox="0 0 399.000000 399.000000"
 preserveAspectRatio="xMidYMid meet">
<metadata>
Created by potrace 1.14, written by Peter Selinger 2001-2017
</metadata>
<g transform="translate(0.000000,399.000000) scale(0.100000,-0.100000)"
fill="#000000" stroke="none">
<path d="M1829 3986 c-2 -2 -29 -6 -59 -9 -93 -10 -229 -37 -319 -62 -364
-104 -715 -326 -961 -611 -70 -81 -176 -225 -193 -264 -4 -8 -16 -28 -27 -45
-21 -34 -90 -170 -115 -230 -62 -147 -114 -341 -140 -525 -12 -91 -14 -416 -2
-485 3 -16 11 -61 17 -100 6 -38 22 -113 36 -165 135 -513 465 -948 924 -1217
210 -123 484 -220 704 -249 21 -3 58 -9 83 -13 47 -9 398 -7 468 3 36 5 151
27 210 40 110 24 281 85 405 144 325 156 612 409 806 710 85 131 123 206 205
407 27 67 71 232 88 330 5 33 13 76 16 95 11 61 14 392 4 465 -29 224 -70 382
-149 570 -258 611 -810 1055 -1465 1179 -44 9 -96 18 -115 21 -37 7 -415 16
-421 11z"/>
</g>
</svg>
