<?xml version="1.0" standalone="no"?>
<!DOCTYPE svg PUBLIC "-//W3C//DTD SVG 20010904//EN"
 "http://www.w3.org/TR/2001/REC-SVG-20010904/DTD/svg10.dtd">
<svg version="1.0" xmlns="http://www.w3.org/2000/svg"
 width="396.000000pt" height="396.000000pt" viewBox="0 0 396.000000 396.000000"
 preserveAspectRatio="xMidYMid meet">
<metadata>
Created by potrace 1.11, written by Peter Selinger 2001-2013
</metadata>
<g transform="translate(0.000000,396.000000) scale(0.100000,-0.100000)"
fill="#000000" stroke="none">
<path d="M1829 3956 c-2 -2 -35 -7 -72 -11 -37 -3 -78 -8 -90 -11 -12 -2 -38
-6 -58 -9 -20 -3 -50 -10 -68 -15 -17 -5 -32 -9 -34 -8 -13 2 -222 -65 -277
-89 -197 -88 -328 -164 -467 -272 -324 -254 -557 -594 -680 -996 -13 -44 -26
-91 -29 -105 -3 -14 -11 -57 -19 -96 -23 -113 -30 -198 -30 -369 1 -176 6
-241 35 -384 44 -222 109 -392 235 -616 141 -251 401 -516 672 -684 142 -88
372 -188 513 -223 202 -50 304 -62 515 -63 161 0 267 8 360 26 527 104 963
386 1270 819 136 193 264 482 306 692 6 29 13 64 15 78 28 135 39 476 20 605
-24 154 -43 239 -83 365 -39 122 -146 360 -165 368 -4 2 -8 9 -8 15 0 15 -113
179 -180 262 -306 375 -741 624 -1225 701 -86 13 -446 29 -456 20z"/>
</g>
</svg>
